<?xml version="1.0" encoding="UTF-8"?>
<svg id="Layer_2" data-name="Layer 2" xmlns="http://www.w3.org/2000/svg" viewBox="0 0 430.84 105.51">
  <defs>
    <style>
      .cls-1 {
        font-family: 'Ownglyph_brilliant-Rg', 'Ownglyph brilliant';
        font-size: 100px;
      }

      .cls-1, .cls-2 {
        fill: #fff;
      }

      .cls-3 {
        fill: #78e18b;
      }
    </style>
  </defs>
  <g id="Layer_1-2" data-name="Layer 1">
    <text class="cls-1" transform="translate(0 80.01)"><tspan x="0" y="0">반갑습니ㄷㅏ</tspan></text>
    <ellipse class="cls-3" cx="379.37" cy="33.41" rx="8.66" ry="16.32" transform="translate(218.03 378.38) rotate(-69.97)"/>
    <ellipse class="cls-3" cx="410.78" cy="37.16" rx="16.32" ry="8.66" transform="translate(11.72 141.41) rotate(-19.81)"/>
    <path class="cls-2" d="M385.49,42.22c-4.89.25-9.96.26-14.62-1.42-3.62-1.31-8.67-5.23-6.81-9.64s7.7-7.07,12.27-7.4,9.47,1.28,12.55,5.05,4.19,9.38,2.31,14.11c-.5,1.25.55,2.75,1.75,3.08,1.44.4,2.55-.5,3.08-1.75,1.76-4.19,5.55-7.24,9.33-9.53,4.07-2.46,9.06-5.01,13.98-4.39,3.48.45,6.49,3.39,6.54,6.74.02,1.59-.71,2.72-2.37,3.71-2.24,1.34-4.72,2.35-7.19,3.18-5.86,1.96-11.99,2.7-18.15,2.26-1.4-.1-2.44,1.23-2.5,2.5-.53,10.53-.15,21.09,1.13,31.56.16,1.34,1.03,2.5,2.5,2.5,1.22,0,2.66-1.15,2.5-2.5-1.28-10.47-1.65-21.03-1.13-31.56l-2.5,2.5c6.56.47,13.24-.35,19.48-2.44,5.29-1.77,12.49-4.28,13.17-10.7.53-5.01-2.97-10-7.53-11.84-6.11-2.47-12.97.04-18.42,3-5.84,3.16-11.05,7.44-13.67,13.68l4.82,1.33c2.22-5.56,1.15-12.2-2.18-17.11-3.63-5.35-9.57-8.4-16.03-8.43s-13.27,2.92-17.07,8.28c-2.19,3.09-2.62,6.8-1.07,10.26,1.27,2.82,3.63,5.16,6.28,6.72,5.8,3.42,13.03,3.58,19.56,3.25,3.2-.16,3.22-5.16,0-5h0Z"/>
  </g>
</svg>